<svg width="349" height="105" viewBox="0 0 349 105" fill="none" xmlns="http://www.w3.org/2000/svg">
<path d="M2.27123 81.8764V41.5284H50.7659V39.1683H2.27123V2.35938H53.8319V0H0V84.2358H54.2859V81.8764H2.27123ZM98.0111 23.5952L77.9095 51.0842L58.2612 23.5959H55.3083L76.5462 52.8544L53.2634 84.2351H55.9893L77.9081 54.6225L99.9408 84.2351H102.78L79.3845 52.853L100.736 23.5945L98.0111 23.5952ZM109.595 105V67.2479H109.822C111.185 72.7533 113.873 77.1775 117.886 80.5204C121.898 83.8626 127.009 85.5344 133.217 85.5344C137.23 85.5344 140.789 84.689 143.893 82.998C146.997 81.3071 149.59 79.0065 151.673 76.0962C153.754 73.186 155.345 69.8041 156.443 65.9499C157.54 62.0965 158.09 58.0454 158.09 53.799C158.09 49.2367 157.521 45.0285 156.385 41.1751C155.25 37.3209 153.603 33.978 151.446 31.147C149.287 28.3153 146.675 26.1125 143.609 24.5405C140.543 22.9671 137.079 22.1804 133.217 22.1804C130.264 22.1804 127.52 22.6329 124.984 23.5371C122.447 24.4421 120.195 25.7195 118.226 27.3714C116.246 29.0361 114.523 31.0054 113.116 33.2111C111.677 35.4529 110.579 37.9107 109.822 40.5852H109.595V23.5952H107.324V105H109.595ZM133.217 83.2919C126.101 83.2919 120.384 80.7555 116.068 75.6827C111.753 70.6099 109.595 63.3144 109.595 53.7976C109.595 49.8648 110.125 46.1289 111.185 42.5898C112.245 39.0508 113.778 35.9437 115.784 33.2699C117.791 30.5954 120.271 28.4718 123.223 26.8991C126.176 25.3258 129.508 24.5391 133.217 24.5391C137.003 24.5391 140.316 25.3258 143.155 26.8991C145.994 28.4718 148.341 30.6152 150.196 33.3287C152.051 36.0421 153.452 39.1492 154.398 42.6486C155.345 46.1487 155.818 49.8648 155.818 53.7976C155.818 57.3374 155.383 60.8573 154.512 64.3567C153.641 67.8568 152.297 71.0029 150.48 73.7956C148.663 76.5869 146.335 78.8677 143.496 80.638C140.656 82.4075 137.23 83.2919 133.217 83.2919ZM170.582 84.2358V49.9045C170.582 46.6012 171.036 43.3758 171.945 40.2305C172.853 37.0844 174.254 34.3115 176.147 31.9132C178.04 29.5141 180.443 27.6264 183.359 26.2498C186.273 24.8733 189.737 24.3033 193.75 24.5391V22.1797C190.267 22.1018 187.22 22.4941 184.608 23.3594C181.995 24.2247 179.743 25.4044 177.85 26.8991C175.957 28.3932 174.443 30.1429 173.308 32.149C172.173 34.1518 171.331 36.3186 170.809 38.5785H170.582V23.5952H168.311V84.2365L170.582 84.2358ZM196.589 54.3874H245.424C245.576 50.2189 245.179 46.2082 244.232 42.354C243.286 38.4999 241.771 35.0784 239.689 32.0902C237.607 29.1013 234.919 26.7023 231.626 24.8931C228.332 23.0839 224.414 22.1797 219.871 22.1797C216.615 22.1797 213.435 22.8878 210.331 24.304C207.227 25.7195 204.501 27.7836 202.154 30.497C199.807 33.2104 197.914 36.5335 196.476 40.467C195.038 44.399 194.318 48.882 194.318 53.9158C194.318 58.3988 194.81 62.5872 195.794 66.4803C196.779 70.3734 198.293 73.756 200.337 76.6266C202.382 79.4972 205.013 81.7192 208.23 83.2919C211.448 84.8653 215.328 85.6123 219.871 85.5337C226.534 85.5337 232.137 83.5865 236.679 79.6941C241.222 75.8002 243.91 70.3146 244.743 63.2358H242.472C241.488 69.9216 238.97 74.9357 234.919 78.2779C230.868 81.6208 225.777 83.2919 219.644 83.2919C215.48 83.2919 211.959 82.5449 209.082 81.0508C206.205 79.5567 203.858 77.511 202.04 74.9158C200.224 72.32 198.88 69.2723 198.009 65.7722C197.138 62.2728 196.665 58.4774 196.589 54.3874ZM243.153 52.028H196.59C196.816 47.7809 197.574 43.9664 198.86 40.5845C200.148 37.2019 201.832 34.3115 203.915 31.9132C205.997 29.5141 208.42 27.6858 211.183 26.4268C213.947 25.1686 216.918 24.5391 220.098 24.5391C223.884 24.5391 227.215 25.267 230.093 26.7221C232.969 28.1773 235.373 30.1635 237.304 32.68C239.235 35.1966 240.692 38.1267 241.676 41.4689C242.661 44.8118 243.153 48.3318 243.153 52.028ZM292.556 41.5284H294.827C294.827 34.764 292.934 29.8484 289.149 26.7809C285.363 23.7134 280.214 22.1797 273.703 22.1797C270.069 22.1797 267.003 22.652 264.504 23.5959C262.006 24.5391 259.961 25.7584 258.371 27.2525C256.782 28.7466 255.646 30.3986 254.964 32.2077C254.283 34.0169 253.942 35.7475 253.942 37.3988C253.942 40.7021 254.51 43.3369 255.646 45.3033C256.782 47.2696 258.561 48.8034 260.983 49.9045C262.649 50.6905 264.541 51.3986 266.662 52.0288C268.782 52.6575 271.243 53.326 274.044 54.0334C276.542 54.6636 279.003 55.2924 281.426 55.9212C283.849 56.5507 285.988 57.3961 287.843 58.4576C289.698 59.5197 291.212 60.8764 292.386 62.5284C293.559 64.1797 294.146 66.3429 294.146 69.0167C294.146 71.6126 293.559 73.8147 292.386 75.6232C291.222 77.423 289.69 78.9338 287.9 80.0481C286.083 81.1881 284.057 82.0138 281.824 82.525C279.59 83.0363 277.413 83.2919 275.294 83.2919C268.404 83.2919 263.122 81.6994 259.45 78.5144C255.778 75.3287 253.942 70.3146 253.942 63.4716H251.671C251.671 71.1013 253.658 76.6854 257.633 80.2251C261.608 83.7642 267.495 85.5337 275.294 85.5337C277.792 85.5337 280.309 85.2385 282.846 84.6486C285.382 84.0588 287.654 83.0958 289.66 81.7582C291.649 80.4395 293.32 78.6637 294.543 76.5678C295.793 74.4435 296.418 71.8484 296.418 68.7809C296.418 65.8706 295.868 63.5112 294.771 61.7021C293.673 59.8936 292.234 58.3988 290.455 57.2191C288.675 56.0394 286.669 55.1153 284.436 54.4469C282.189 53.7745 279.937 53.1254 277.678 52.4996C274.898 51.742 272.116 50.995 269.331 50.2585C266.946 49.629 264.731 48.882 262.687 48.0167C260.719 47.1514 259.147 45.9129 257.974 44.3006C256.8 42.6883 256.214 40.3877 256.214 37.3988C256.214 36.8486 256.365 35.8651 256.668 34.4496C256.97 33.0334 257.69 31.5981 258.826 30.1429C259.961 28.6885 261.702 27.3906 264.05 26.2498C266.397 25.1098 269.615 24.5391 273.703 24.5391C276.505 24.5391 279.06 24.8542 281.369 25.483C283.678 26.1124 285.666 27.1151 287.331 28.4917C288.997 29.8682 290.284 31.6179 291.193 33.7415C292.101 35.8658 292.556 38.4609 292.556 41.5284ZM345.139 41.5284H347.41C347.41 34.764 345.518 29.8484 341.732 26.7809C337.946 23.7134 332.797 22.1797 326.286 22.1797C322.652 22.1797 319.585 22.652 317.087 23.5959C314.588 24.5391 312.544 25.7584 310.954 27.2525C309.364 28.7466 308.228 30.3986 307.547 32.2077C306.865 34.0169 306.525 35.7475 306.525 37.3988C306.525 40.7021 307.093 43.3369 308.229 45.3033C309.364 47.2696 311.144 48.8034 313.566 49.9045C315.232 50.6905 317.124 51.3986 319.244 52.0288C321.364 52.6575 323.825 53.326 326.627 54.0334C329.125 54.6636 331.586 55.2924 334.009 55.9212C336.432 56.5507 338.57 57.3961 340.426 58.4576C342.28 59.5197 343.795 60.8764 344.968 62.5284C346.142 64.1797 346.729 66.3429 346.729 69.0167C346.729 71.6126 346.142 73.8147 344.968 75.6232C343.804 77.4229 342.273 78.9338 340.483 80.0481C338.665 81.1881 336.64 82.0138 334.406 82.525C332.173 83.0363 329.996 83.2919 327.876 83.2919C320.986 83.2919 315.705 81.6994 312.033 78.5144C308.361 75.3287 306.525 70.3146 306.525 63.4716H304.254C304.254 71.1013 306.241 76.6854 310.216 80.2251C314.191 83.7642 320.077 85.5337 327.876 85.5337C330.375 85.5337 332.892 85.2385 335.429 84.6486C337.964 84.0588 340.236 83.0958 342.243 81.7582C344.232 80.4395 345.903 78.6637 347.126 76.5678C348.376 74.4435 349 71.8484 349 68.7809C349 65.8706 348.451 63.5112 347.353 61.7021C346.256 59.8936 344.817 58.3988 343.038 57.2191C341.259 56.0394 339.252 55.1153 337.019 54.4469C334.772 53.7745 332.52 53.1254 330.261 52.4996C327.481 51.742 324.699 50.995 321.914 50.2585C319.529 49.629 317.314 48.882 315.27 48.0167C313.301 47.1514 311.73 45.9129 310.557 44.3006C309.383 42.6883 308.796 40.3877 308.796 37.3988C308.796 36.8486 308.947 35.8651 309.251 34.4496C309.553 33.0334 310.273 31.5981 311.408 30.1429C312.544 28.6885 314.285 27.3906 316.632 26.2498C318.98 25.1098 322.197 24.5391 326.286 24.5391C329.088 24.5391 331.643 24.8542 333.952 25.483C336.262 26.1124 338.248 27.1151 339.914 28.4917C341.58 29.8682 342.867 31.6179 343.776 33.7415C344.685 35.8658 345.139 38.4609 345.139 41.5284Z" fill="white"/>
</svg>
