<svg width="124" height="146" viewBox="0 0 124 146" fill="none" xmlns="http://www.w3.org/2000/svg">
<path d="M56.4193 1.85348C59.7908 -0.20968 64.1822 -0.218999 67.5507 1.85348C84.4977 12.0911 101.45 22.3126 118.394 32.5564C121.581 34.4757 123.713 38.2675 123.68 42.1935V103.787C123.704 107.875 121.362 111.758 117.999 113.634C101.108 123.815 84.2256 134.008 67.3372 144.189C63.8959 146.293 59.4165 146.131 56.0827 143.855C51.0187 140.717 45.946 137.594 40.8815 134.458C39.8467 133.799 38.6801 133.274 37.9493 132.201C38.5953 131.27 39.7503 131.154 40.6888 130.748C42.8026 130.029 44.7441 128.876 46.686 127.756C47.177 127.397 47.7766 127.535 48.2473 127.856C52.5776 130.511 56.8697 133.242 61.2145 135.871C62.1414 136.443 63.08 135.684 63.8722 135.212C80.4478 125.196 97.0437 115.218 113.616 105.2C114.23 104.884 114.57 104.187 114.52 103.468C114.532 83.1496 114.523 62.8276 114.526 42.5093C114.596 41.6934 114.154 40.9432 113.464 40.6092C96.6316 30.4747 79.8076 20.3245 62.9778 10.1874C62.6862 9.97307 62.3408 9.85808 61.9869 9.85753C61.6331 9.85697 61.2874 9.97088 60.9952 10.1843C44.1654 20.3245 27.3443 30.484 10.5145 40.618C9.82682 40.9525 9.36531 41.6903 9.44715 42.5093C9.45006 62.8276 9.44715 83.1496 9.44715 103.471C9.41797 103.822 9.49005 104.174 9.6537 104.48C9.81734 104.785 10.0647 105.03 10.3624 105.181C14.8535 107.904 19.3505 110.607 23.8445 113.321C26.3762 114.778 29.4848 115.643 32.2741 114.527C34.7357 113.583 36.4611 110.898 36.4142 108.104C36.4374 87.9039 36.4025 67.701 36.4316 47.5044C36.3701 46.6077 37.1657 45.8668 37.9813 45.9512C40.1392 45.9356 42.3 45.9201 44.4579 45.9574C45.3586 45.9356 45.9785 46.9012 45.8671 47.8046C45.8584 68.1323 45.8903 88.4605 45.8526 108.788C45.8584 114.206 43.7765 120.101 39.0893 122.751C33.3148 125.949 26.1777 125.271 20.473 122.205C15.5344 119.569 10.8215 116.459 5.97059 113.636C2.59959 111.771 0.268802 107.873 0.292531 103.787V42.1935C0.257179 38.1863 2.47368 34.3255 5.75993 32.4343C22.6483 22.2448 39.5338 12.0476 56.4193 1.85348Z" fill="#8CC84B"/>
<path d="M71.1527 44.5197C78.5185 44.0128 86.4038 44.2194 93.032 48.0987C98.1638 51.0716 101.009 57.3107 101.099 63.406C100.956 64.2281 100.152 64.6817 99.4181 64.6252C97.281 64.6221 95.1434 64.6563 93.0063 64.6097C92.0998 64.647 91.5729 63.7534 91.4591 62.8965C90.845 59.9801 89.3574 57.0917 86.7898 55.6851C82.8483 53.5753 78.2783 53.6814 73.9804 53.7254C70.8428 53.9035 67.4689 54.194 64.8107 56.1665C62.77 57.6607 62.1502 60.677 62.8785 63.1062C63.5652 64.8504 65.4485 65.4132 66.9895 65.932C75.8661 68.414 85.2726 68.167 93.9797 71.4334C97.5846 72.765 101.111 75.3536 102.345 79.3888C103.959 84.797 103.252 91.2614 99.6525 95.6031C96.7338 99.176 92.4828 101.121 88.2431 102.177C82.6028 103.521 76.7494 103.555 71.0215 102.959C65.6355 102.302 60.0305 100.789 55.8726 96.8659C52.3171 93.5653 50.5805 88.4227 50.7529 83.4592C50.7941 82.621 51.5747 82.0365 52.3258 82.1054C54.4779 82.0867 56.63 82.0805 58.7821 82.1085C59.6417 82.0427 60.279 82.8369 60.323 83.7031C60.7201 86.4817 61.6969 89.3981 63.9633 91.0455C68.3372 94.0623 73.8254 93.8558 78.8337 93.9402C82.9829 93.7434 87.6406 93.6839 91.0266 90.752C92.8131 89.0797 93.3424 86.2819 92.8596 83.875C92.3366 81.8429 90.3482 80.8959 88.6407 80.2767C79.8778 77.3132 70.3663 78.3886 61.6882 75.0373C58.1651 73.7062 54.7583 71.1895 53.4048 67.32C51.5161 61.8435 52.3815 55.0695 56.3578 50.8743C60.2349 46.7014 65.8316 45.0949 71.1527 44.5197Z" fill="#8CC84B"/>
</svg>
